<svg width="215" height="58" viewBox="0 0 215 58" fill="none" xmlns="http://www.w3.org/2000/svg">
<path d="M102.864 46L108.659 11.0909H119.415C121.619 11.0909 123.443 11.5227 124.886 12.3864C126.341 13.2386 127.364 14.4318 127.955 15.9659C128.557 17.5 128.693 19.2784 128.364 21.3011C128.023 23.3011 127.301 25.0625 126.199 26.5852C125.097 28.0966 123.682 29.2784 121.955 30.1307C120.239 30.983 118.278 31.4091 116.074 31.4091H106.426L106.75 29.4148H116.347C118.131 29.4148 119.716 29.0795 121.102 28.4091C122.5 27.7386 123.636 26.7955 124.511 25.5795C125.398 24.3636 125.977 22.9375 126.25 21.3011C126.523 19.6307 126.42 18.1818 125.943 16.9545C125.466 15.7159 124.642 14.7614 123.472 14.0909C122.301 13.4091 120.818 13.0682 119.023 13.0682H110.449L104.994 46H102.864ZM119.841 30.1818L125.79 46H123.386L117.472 30.1818H119.841ZM131.423 46H129.173L147.565 11.0909H150.02L156.821 46H154.571L148.452 13.8352H148.264L131.423 46ZM136.81 32.858H153.582L153.241 34.8352H136.469L136.81 32.858ZM162.391 13.0682L162.732 11.0909H187.192L186.851 13.0682H175.686L170.232 46H168.101L173.555 13.0682H162.391ZM189.161 46L194.956 11.0909H214.388L214.047 13.0682H196.746L194.359 27.5398H210.621L210.28 29.517H194.018L191.632 44.0227H209.342L209.001 46H189.161Z" fill="white"/>
<path d="M13.5682 46.5455C11.3864 46.5455 9.46023 45.9943 7.78977 44.892C6.11932 43.7784 4.8125 42.2102 3.86932 40.1875C2.92614 38.1534 2.45455 35.75 2.45455 32.9773C2.45455 30.2273 2.92614 27.8409 3.86932 25.8182C4.8125 23.7955 6.125 22.233 7.80682 21.1307C9.48864 20.0284 11.4318 19.4773 13.6364 19.4773C15.3409 19.4773 16.6875 19.7614 17.6761 20.3295C18.6761 20.8864 19.4375 21.5227 19.9602 22.2386C20.4943 22.9432 20.9091 23.5227 21.2045 23.9773H21.5455V11.0909H25.5682V46H21.6818V41.9773H21.2045C20.9091 42.4545 20.4886 43.0568 19.9432 43.7841C19.3977 44.5 18.6193 45.142 17.608 45.7102C16.5966 46.267 15.25 46.5455 13.5682 46.5455ZM14.1136 42.9318C15.7273 42.9318 17.0909 42.5114 18.2045 41.6705C19.3182 40.8182 20.1648 39.642 20.7443 38.142C21.3239 36.6307 21.6136 34.8864 21.6136 32.9091C21.6136 30.9545 21.3295 29.2443 20.7614 27.7784C20.1932 26.3011 19.3523 25.1534 18.2386 24.3352C17.125 23.5057 15.75 23.0909 14.1136 23.0909C12.4091 23.0909 10.9886 23.5284 9.85227 24.4034C8.72727 25.267 7.88068 26.4432 7.3125 27.9318C6.75568 29.4091 6.47727 31.0682 6.47727 32.9091C6.47727 34.7727 6.76136 36.4659 7.32955 37.9886C7.90909 39.5 8.76136 40.7045 9.88636 41.6023C11.0227 42.4886 12.4318 42.9318 14.1136 42.9318ZM41.1989 46.6136C39.5398 46.6136 38.0341 46.3011 36.6818 45.6761C35.3295 45.0398 34.2557 44.125 33.4602 42.9318C32.6648 41.7273 32.267 40.2727 32.267 38.5682C32.267 37.0682 32.5625 35.8523 33.1534 34.9205C33.7443 33.9773 34.5341 33.2386 35.5227 32.7045C36.5114 32.1705 37.6023 31.7727 38.7955 31.5114C40 31.2386 41.2102 31.0227 42.4261 30.8636C44.017 30.6591 45.3068 30.5057 46.2955 30.4034C47.2955 30.2898 48.0227 30.1023 48.4773 29.8409C48.9432 29.5795 49.1761 29.125 49.1761 28.4773V28.3409C49.1761 26.6591 48.7159 25.3523 47.7955 24.4205C46.8864 23.4886 45.5057 23.0227 43.6534 23.0227C41.733 23.0227 40.2273 23.4432 39.1364 24.2841C38.0455 25.125 37.2784 26.0227 36.8352 26.9773L33.017 25.6136C33.6989 24.0227 34.608 22.7841 35.7443 21.8977C36.892 21 38.142 20.375 39.4943 20.0227C40.858 19.6591 42.1989 19.4773 43.517 19.4773C44.358 19.4773 45.3239 19.5795 46.4148 19.7841C47.517 19.9773 48.5795 20.3807 49.6023 20.9943C50.6364 21.608 51.4943 22.5341 52.1761 23.7727C52.858 25.0114 53.1989 26.6705 53.1989 28.75V46H49.1761V42.4545H48.9716C48.6989 43.0227 48.2443 43.6307 47.608 44.2784C46.9716 44.9261 46.125 45.4773 45.0682 45.9318C44.0114 46.3864 42.7216 46.6136 41.1989 46.6136ZM41.8125 43C43.4034 43 44.7443 42.6875 45.8352 42.0625C46.9375 41.4375 47.767 40.6307 48.3239 39.642C48.892 38.6534 49.1761 37.6136 49.1761 36.5227V32.8409C49.0057 33.0455 48.6307 33.233 48.0511 33.4034C47.483 33.5625 46.8239 33.7045 46.0739 33.8295C45.3352 33.9432 44.6136 34.0455 43.9091 34.1364C43.2159 34.2159 42.6534 34.2841 42.2216 34.3409C41.1761 34.4773 40.1989 34.6989 39.2898 35.0057C38.392 35.3011 37.6648 35.75 37.108 36.3523C36.5625 36.9432 36.2898 37.75 36.2898 38.7727C36.2898 40.1705 36.8068 41.2273 37.8409 41.9432C38.8864 42.6477 40.2102 43 41.8125 43ZM60.5412 46V19.8182H64.5639V46H60.5412ZM62.5866 15.4545C61.8026 15.4545 61.1264 15.1875 60.5582 14.6534C60.0014 14.1193 59.723 13.4773 59.723 12.7273C59.723 11.9773 60.0014 11.3352 60.5582 10.8011C61.1264 10.267 61.8026 10 62.5866 10C63.3707 10 64.0412 10.267 64.598 10.8011C65.1662 11.3352 65.4503 11.9773 65.4503 12.7273C65.4503 13.4773 65.1662 14.1193 64.598 14.6534C64.0412 15.1875 63.3707 15.4545 62.5866 15.4545ZM75.9545 11.0909V46H71.9318V11.0909H75.9545ZM85.9134 55.8182C85.2315 55.8182 84.6236 55.7614 84.0895 55.6477C83.5554 55.5455 83.1861 55.4432 82.9815 55.3409L84.0043 51.7955C84.9815 52.0455 85.8452 52.1364 86.5952 52.0682C87.3452 52 88.0099 51.6648 88.5895 51.0625C89.1804 50.4716 89.7202 49.5114 90.2088 48.1818L90.9588 46.1364L81.277 19.8182H85.6406L92.8679 40.6818H93.1406L100.368 19.8182H104.732L93.6179 49.8182C93.1179 51.1705 92.4986 52.2898 91.7599 53.1761C91.0213 54.0739 90.1634 54.7386 89.1861 55.1705C88.2202 55.6023 87.1293 55.8182 85.9134 55.8182Z" fill="white"/>
</svg>
